<svg width="2069" height="319" viewBox="0 0 2069 319" fill="none" xmlns="http://www.w3.org/2000/svg">
<rect width="2069" height="319" rx="5" fill="#94B2CE"/>
<rect width="2069" height="319" rx="5" fill="#94B2CE"/>
<rect width="2069" height="319" rx="5" fill="#2A1E50"/>
<rect width="2069" height="319" rx="5" stroke="black"/>
<path d="M680.134 96.478C586.23 40.8476 0 137.349 0 137.349V314C0 316.761 2.23855 319 4.99998 319H680.134C680.134 319 774.038 152.109 680.134 96.478Z" fill="#382D5C"/>
<path d="M1392.09 205.152C1302.9 178.133 1256.27 37.3983 1246.92 6.15058C1245.98 3.00443 1248.38 0 1251.66 0H2064C2066.76 0 2069 2.23858 2069 5V314C2069 316.761 2066.76 319 2064 319H1825.39C1823.79 319 1822.31 318.267 1821.34 317.006C1811.15 303.821 1749.79 228.065 1645.78 174.717C1550.53 125.867 1492.56 235.587 1392.09 205.152Z" fill="#382D5C"/>
</svg>
